<svg width="80" height="80" viewBox="0 0 80 80" fill="none" xmlns="http://www.w3.org/2000/svg">
<path d="M42 40V38H38V40H42ZM38.5858 65.4142C39.3668 66.1953 40.6332 66.1953 41.4142 65.4142L54.1421 52.6863C54.9232 51.9052 54.9232 50.6389 54.1421 49.8579C53.3611 49.0768 52.0948 49.0768 51.3137 49.8579L40 61.1716L28.6863 49.8579C27.9052 49.0768 26.6389 49.0768 25.8579 49.8579C25.0768 50.6389 25.0768 51.9052 25.8579 52.6863L38.5858 65.4142ZM38 40V64H42V40H38Z" fill="#D1D5DB"/>
<path d="M64 42C65.1046 42 66 41.1046 66 40C66 38.8954 65.1046 38 64 38V42ZM40 38H38V42H40V38ZM64 38L40 38V42L64 42V38Z" fill="#D1D5DB"/>
</svg>
