<svg width="80" height="80" viewBox="0 0 80 80" fill="none" xmlns="http://www.w3.org/2000/svg">
<circle cx="40" cy="40" r="22" stroke="#D1D5DB" stroke-width="4"/>
<rect x="27.5" y="27.5" width="25" height="25" stroke="#D1D5DB"/>
<rect x="28" y="28" width="4" height="4" fill="#D1D5DB"/>
<rect x="36" y="28" width="4" height="4" fill="#D1D5DB"/>
<rect x="44" y="28" width="4" height="4" fill="#D1D5DB"/>
<rect x="32" y="32" width="4" height="4" fill="#D1D5DB"/>
<rect x="32" y="40" width="4" height="4" fill="#D1D5DB"/>
<rect x="32" y="48" width="4" height="4" fill="#D1D5DB"/>
<rect x="40" y="32" width="4" height="4" fill="#D1D5DB"/>
<rect x="40" y="40" width="4" height="4" fill="#D1D5DB"/>
<rect x="40" y="48" width="4" height="4" fill="#D1D5DB"/>
<rect x="48" y="32" width="4" height="4" fill="#D1D5DB"/>
<rect x="48" y="40" width="4" height="4" fill="#D1D5DB"/>
<rect x="48" y="48" width="4" height="4" fill="#D1D5DB"/>
<rect x="28" y="36" width="4" height="4" fill="#D1D5DB"/>
<rect x="28" y="44" width="4" height="4" fill="#D1D5DB"/>
<rect x="36" y="36" width="4" height="4" fill="#D1D5DB"/>
<rect x="36" y="44" width="4" height="4" fill="#D1D5DB"/>
<rect x="44" y="36" width="4" height="4" fill="#D1D5DB"/>
<rect x="44" y="44" width="4" height="4" fill="#D1D5DB"/>
</svg>
