<svg width="80" height="80" viewBox="0 0 80 80" fill="none" xmlns="http://www.w3.org/2000/svg">
<path d="M40 38H38V42H40V38ZM65.4142 41.4142C66.1953 40.6332 66.1953 39.3668 65.4142 38.5858L52.6863 25.8579C51.9052 25.0768 50.6389 25.0768 49.8579 25.8579C49.0768 26.6389 49.0768 27.9052 49.8579 28.6863L61.1716 40L49.8579 51.3137C49.0768 52.0948 49.0768 53.3611 49.8579 54.1421C50.6389 54.9232 51.9052 54.9232 52.6863 54.1421L65.4142 41.4142ZM40 42L64 42V38L40 38V42Z" fill="#D1D5DB"/>
<path d="M42 16C42 14.8954 41.1046 14 40 14C38.8954 14 38 14.8954 38 16H42ZM38 40V42H42V40H38ZM38 16V40H42V16H38Z" fill="#D1D5DB"/>
</svg>
