<svg xmlns="http://www.w3.org/2000/svg" width="245" height="46" fill="none" xmlns:v="https://vecta.io/nano"><path d="M242.383 24.061a1.5 1.5 0 0 0 0-2.121l-9.546-9.546a1.5 1.5 0 0 0-2.121 2.121L239.201 23l-8.485 8.485a1.5 1.5 0 0 0 2.121 2.121l9.546-9.546zM3.771 24.5a1.5 1.5 0 1 0 0-3v3zm22.624-3a1.5 1.5 0 1 0 0 3v-3zm7.541 3a1.5 1.5 0 1 0 0-3v3zm22.624-3a1.5 1.5 0 1 0 0 3v-3zm7.541 3a1.5 1.5 0 1 0 0-3v3zm22.624-3a1.5 1.5 0 1 0 0 3v-3zm7.541 3a1.5 1.5 0 1 0 0-3v3zm22.624-3a1.5 1.5 0 1 0 0 3v-3zm7.542 3a1.5 1.5 0 1 0 0-3v3zm22.624-3a1.5 1.5 0 1 0 0 3v-3zm7.541 3a1.5 1.5 0 1 0 0-3v3zm22.624-3a1.5 1.5 0 1 0 0 3v-3zm7.541 3a1.5 1.5 0 1 0 0-3v3zm22.624-3a1.5 1.5 0 1 0 0 3v-3zm7.542 3a1.5 1.5 0 1 0 0-3v3zm22.624-3a1.5 1.5 0 1 0 0 3v-3zM0 24.5h3.771v-3H0v3zm26.395 0h7.541v-3h-7.541v3zm30.165 0h7.541v-3H56.56v3zm30.165 0h7.541v-3h-7.541v3zm30.165 0h7.542v-3h-7.542v3zm30.166 0h7.541v-3h-7.541v3zm30.165 0h7.541v-3h-7.541v3zm30.165 0h7.542v-3h-7.542v3zm30.166 0h3.77v-3h-3.77v3zm5.892.621a3 3 0 0 0 0-4.243L224.352 1.787a3 3 0 1 0-4.243 4.243L237.08 23l-16.971 16.971a3 3 0 1 0 4.243 4.243l19.092-19.092zM3.771 26a3 3 0 1 0 0-6v6zm22.624-6a3 3 0 1 0 0 6v-6zm7.541 6a3 3 0 1 0 0-6v6zm22.624-6a3 3 0 1 0 0 6v-6zm7.541 6a3 3 0 1 0 0-6v6zm22.624-6a3 3 0 1 0 0 6v-6zm7.541 6a3 3 0 1 0 0-6v6zm22.624-6a3 3 0 1 0 0 6v-6zm7.542 6a3 3 0 1 0 0-6v6zm22.624-6a3 3 0 1 0 0 6v-6zm7.541 6a3 3 0 1 0 0-6v6zm22.624-6a3 3 0 1 0 0 6v-6zm7.541 6a3 3 0 1 0 0-6v6zm22.624-6a3 3 0 1 0 0 6v-6zm7.542 6a3 3 0 1 0 0-6v6zm22.624-6a3 3 0 1 0 0 6v-6zM0 26h3.771v-6H0v6zm26.395 0h7.541v-6h-7.541v6zm30.165 0h7.541v-6H56.56v6zm30.165 0h7.541v-6h-7.541v6zm30.165 0h7.542v-6h-7.542v6zm30.166 0h7.541v-6h-7.541v6zm30.165 0h7.541v-6h-7.541v6zm30.165 0h7.542v-6h-7.542v6zm30.166 0h3.77v-6h-3.77v6z" fill="url(#A)"/><defs><linearGradient id="A" x1="241.322" y1="23" x2="0" y2="23" gradientUnits="userSpaceOnUse"><stop stop-color="#333"/><stop offset="1" stop-color="#333" stop-opacity="0"/></linearGradient></defs></svg>