<svg width="80" height="80" viewBox="0 0 80 80" fill="none" xmlns="http://www.w3.org/2000/svg">
<path d="M38 40V42H42V40H38ZM41.4142 14.5858C40.6332 13.8047 39.3668 13.8047 38.5858 14.5858L25.8579 27.3137C25.0768 28.0948 25.0768 29.3611 25.8579 30.1421C26.6389 30.9232 27.9052 30.9232 28.6863 30.1421L40 18.8284L51.3137 30.1421C52.0948 30.9232 53.3611 30.9232 54.1421 30.1421C54.9232 29.3611 54.9232 28.0948 54.1421 27.3137L41.4142 14.5858ZM42 40L42 16H38L38 40H42Z" fill="#D1D5DB"/>
<path d="M16 38C14.8954 38 14 38.8954 14 40C14 41.1046 14.8954 42 16 42V38ZM40 42H42V38H40V42ZM16 42H40V38H16V42Z" fill="#D1D5DB"/>
</svg>
