<svg width="80" height="80" viewBox="0 0 80 80" fill="none" xmlns="http://www.w3.org/2000/svg">
<path d="M40 42H42V38H40V42ZM14.5858 38.5858C13.8047 39.3668 13.8047 40.6332 14.5858 41.4142L27.3137 54.1421C28.0948 54.9232 29.3611 54.9232 30.1421 54.1421C30.9232 53.3611 30.9232 52.0948 30.1421 51.3137L18.8284 40L30.1421 28.6863C30.9232 27.9052 30.9232 26.6389 30.1421 25.8579C29.3611 25.0768 28.0948 25.0768 27.3137 25.8579L14.5858 38.5858ZM40 38L16 38V42H40V38Z" fill="#D1D5DB"/>
<path d="M38 64C38 65.1046 38.8954 66 40 66C41.1046 66 42 65.1046 42 64H38ZM42 40V38H38V40H42ZM42 64V40H38V64H42Z" fill="#D1D5DB"/>
</svg>
